<svg width="192" height="192" viewBox="0 0 192 192" fill="none" xmlns="http://www.w3.org/2000/svg">
<path d="M67.8657 119.2V123.2C67.8657 126.3 64.2657 128.6 60.9657 126.1C58.4657 122.8 60.7657 119.2 63.8657 119.2H67.8657ZM67.8657 119.2V62.2002C67.8657 55.6002 62.4657 50.2002 55.8657 50.2002C49.2657 50.2002 43.8657 55.6002 43.8657 62.2002V97.2002C43.8657 100.5 41.1657 103.2 37.8657 103.2C34.5657 103.2 31.8657 100.5 31.8657 97.2002V87.2002C31.8657 82.8002 28.2657 79.2002 23.8657 79.2002C19.4657 79.2002 15.8657 82.8002 15.8657 87.2002V97.2002C15.8657 109.4 25.6657 119.2 37.8657 119.2H39.8657C42.0657 119.2 43.8657 121 43.8657 123.2V169.2C43.8657 175.8 38.4657 181.2 31.8657 181.2H3.86572M67.8657 119.2H73.8657C77.1657 119.2 79.8657 116.5 79.8657 113.2V87.2002C79.8657 82.8002 83.4657 79.2002 87.8657 79.2002C92.2657 79.2002 95.8657 82.8002 95.8657 87.2002V113.2C95.8657 125.4 86.0657 135.2 73.8657 135.2H71.8657C69.6657 135.2 67.8657 137 67.8657 139.2V169.2C67.8657 175.8 73.2657 181.2 79.8657 181.2H187.866M88.8657 173.2L93.8657 168.2V157.2C93.8657 155 95.6657 153.2 97.8657 153.2H103.866C106.066 153.2 107.866 155 107.866 157.2V168.2L112.466 172.8C113.266 173.6 114.466 173.6 115.266 172.8L127.866 160.2V133.2C127.866 128.8 131.466 125.2 135.866 125.2H147.866C152.266 125.2 155.866 128.8 155.866 133.2V157.2C155.866 159.4 157.666 161.2 159.866 161.2C162.066 161.2 163.866 159.4 163.866 157.2V145.2C163.866 143 165.666 141.2 167.866 141.2C170.066 141.2 171.866 143 171.866 145.2V166.2L178.866 173.2M175.866 39.2002C175.866 52.455 165.121 63.2002 151.866 63.2002C138.611 63.2002 127.866 52.455 127.866 39.2002C127.866 25.9454 138.611 15.2002 151.866 15.2002C165.121 15.2002 175.866 25.9454 175.866 39.2002Z" stroke="url(#paint0_linear_117_15621)" stroke-width="2.5" stroke-miterlimit="10" stroke-linecap="round" stroke-linejoin="round"/>
<defs>
<linearGradient id="paint0_linear_117_15621" x1="95.8657" y1="15.2002" x2="95.8657" y2="181.2" gradientUnits="userSpaceOnUse">
<stop stop-color="#93C437"/>
<stop offset="1" stop-color="#279BE8"/>
</linearGradient>
</defs>
</svg>
