<svg width="200" height="192" viewBox="0 0 200 192" fill="none" xmlns="http://www.w3.org/2000/svg">
<path d="M144.942 69.0612L158.136 56.3945M144.942 123.95L158.136 136.617M44.8837 116.561C34.9879 117.617 22.673 109.7 19.5943 100.728L6.3999 100.728M158.136 96.5056L177.928 96.5056M92.1638 111.283C89.7448 108.961 89.7448 105.161 92.1638 102.839C94.5828 100.517 98.5411 100.517 100.96 102.839L109.756 111.283C112.23 113.658 112.175 117.406 109.756 119.728C107.337 122.05 103.379 122.05 100.96 119.728L92.1638 111.283ZM92.1638 111.283L81.1684 100.728C78.7494 98.4056 74.7911 98.4056 72.3721 100.728C69.9531 103.05 69.9531 106.85 72.3721 109.172L83.3675 119.728C85.7865 122.05 89.7448 122.05 92.1638 119.728C94.5828 117.406 94.6378 113.658 92.1638 111.283ZM28.3906 66.9501L50.3814 66.9501C63.5758 66.9501 70.1731 66.9501 74.5712 69.0612L104.204 83.2584C104.863 83.5751 105.248 84.3668 104.973 85.0529C102.884 91.0695 95.6823 93.9723 89.7448 91.1223L76.7703 84.8945C72.3721 82.7834 69.6233 80.1445 69.6233 78.0334C69.6233 75.289 75.066 74.3918 75.4508 78.4556C75.6158 79.7751 75.011 81.0945 74.0764 82.0973C57.6383 99.3556 40.9254 95.239 34.9879 93.339C33.3386 92.8112 31.1395 93.8668 31.1395 95.9779L31.0295 101.361C31.0295 104.528 32.7888 104.95 36.0874 104.95L43.7842 104.95M138.344 75.3945C137.245 75.3945 136.145 75.3945 132.847 77.5056L118.718 86.6362C117.178 87.5862 115.364 88.1668 113.55 88.114L110.911 88.114M138.344 117.617C137.245 117.617 136.145 117.617 132.847 115.506L118.718 106.481C117.178 105.531 115.364 104.95 113.55 105.003H103.214M76.7703 113.395L65.7749 102.839C63.3559 100.517 59.3976 100.517 56.9786 102.839C54.5596 105.161 54.5596 108.961 56.9786 111.283L67.974 121.839C70.393 124.161 74.3513 124.161 76.7703 121.839C79.1893 119.517 79.2442 115.77 76.7703 113.395ZM61.4317 115.558L54.8345 109.225C52.4155 106.903 48.4572 106.903 46.0382 109.225C43.6192 111.547 43.6192 115.347 46.0382 117.67L52.6354 124.003C55.0544 126.325 59.0128 126.325 61.4317 124.003C63.7957 121.628 63.8507 117.881 61.4317 115.558ZM146.857 96.5207C146.857 108.186 143.028 117.643 138.305 117.643C133.581 117.643 129.752 108.186 129.752 96.5207C129.752 84.855 133.581 75.3981 138.305 75.3981C143.028 75.3981 146.857 84.855 146.857 96.5207Z" stroke="url(#paint0_linear_117_13492)" stroke-width="2.5" stroke-miterlimit="10" stroke-linecap="round" stroke-linejoin="round"/>
<defs>
<linearGradient id="paint0_linear_117_13492" x1="92.1638" y1="56.3945" x2="92.1638" y2="136.617" gradientUnits="userSpaceOnUse">
<stop stop-color="#279BE8"/>
<stop offset="1" stop-color="#875AE0"/>
</linearGradient>
</defs>
</svg>
